<?xml version="1.0" standalone="no"?>
<!DOCTYPE svg PUBLIC "-//W3C//DTD SVG 1.1//EN" "http://www.w3.org/Graphics/SVG/1.1/DTD/svg11.dtd" >
<svg xmlns="http://www.w3.org/2000/svg" xmlns:xlink="http://www.w3.org/1999/xlink" version="1.1">
<metadata>
Created by FontForge 20170731 at Mon Feb 21 17:52:03 2005
 By Aleksey,,,
Copyright (c) 1990 Neufville SL, Copyright (c) 1990-2000 ParaType, Inc. All Rights Reserved. Futura is a registered trade mark of Neufville SL.
</metadata>
<defs>
<font id="FuturaFuturisBlackC" horiz-adv-x="672" >
  <font-face 
    font-family="FuturaFuturisBlackC"
    font-weight="900"
    font-stretch="normal"
    units-per-em="1000"
    panose-1="0 0 10 0 0 0 0 0 0 0"
    ascent="775"
    descent="-225"
    x-height="483"
    cap-height="700"
    bbox="-28 -224.5 1289 889"
    underline-thickness="50"
    underline-position="-250"
    unicode-range="U+0020-2122"
  />
<missing-glyph horiz-adv-x="233" 
 />
    <glyph glyph-name=".notdef" horiz-adv-x="233" 
 />
    <glyph glyph-name=".null" horiz-adv-x="0" 
 />
    <glyph glyph-name="nonmarkingreturn" horiz-adv-x="333" 
 />
    <glyph glyph-name="space" unicode=" " horiz-adv-x="233" 
 />
    <glyph glyph-name="space" unicode="&#xa0;" horiz-adv-x="233" 
 />
    <glyph glyph-name="exclam" unicode="!" horiz-adv-x="378" 
d="M73 238v462h232v-462h-232zM63 91q0 52 37.5 80.5t88.5 28.5t88.5 -28.5t37.5 -80.5t-37.5 -80t-88.5 -28t-88.5 28t-37.5 80z" />
    <glyph glyph-name="quotedbl" unicode="&#x22;" horiz-adv-x="408" 
d="M176 700l-35 -203h-56l-35 203h126zM358 700l-35 -203h-56l-35 203h126z" />
    <glyph glyph-name="numbersign" unicode="#" horiz-adv-x="802" 
d="M506 40h-80l22 125h-157l-22 -125h-80l22 125h-123l17 100h123l29 170h-123l17 100h123l22 125h80l-22 -125h157l22 125h80l-22 -125h123l-17 -100h-123l-29 -170h123l-17 -100h-123zM308 265h157l29 170h-157z" />
    <glyph glyph-name="dollar" unicode="$" horiz-adv-x="609" 
d="M248 -17q-110 11 -241 109l106 156q54 -43 92.5 -62.5t82.5 -19.5q34 0 46.5 13.5t12.5 28.5q0 14 -7.5 25t-24.5 18.5t-29.5 12t-37.5 10.5t-33 8q-170 49 -170 195q0 109 59.5 168t143.5 71v110h126v-109q87 -2 180 -66l-81 -154q-74 45 -128 45q-65 0 -65 -44
q0 -12 4 -20t14.5 -13.5t20 -8t28 -7t30.5 -8.5q4 -1 24.5 -7.5t27 -9t26.5 -10t28 -12.5t24.5 -15.5t24.5 -20t19.5 -24.5t16.5 -30.5t9 -36.5t4 -44q0 -58 -18.5 -104.5t-49 -74.5t-66 -44.5t-73.5 -20.5v-102h-126v98z" />
    <glyph glyph-name="percent" unicode="%" horiz-adv-x="882" 
d="M168 -20l455 740h91l-455 -740h-91zM21 528q0 79 56.5 135.5t135.5 56.5t135.5 -56.5t56.5 -135.5t-56.5 -135.5t-135.5 -56.5t-135.5 56.5t-56.5 135.5zM135 528q0 -33 22.5 -55.5t55.5 -22.5t55.5 22.5t22.5 55.5t-22.5 55.5t-55.5 22.5t-55.5 -22.5t-22.5 -55.5z
M477 172q0 79 56.5 135.5t135.5 56.5t135.5 -56.5t56.5 -135.5t-56.5 -135.5t-135.5 -56.5t-135.5 56.5t-56.5 135.5zM591 172q0 -33 22.5 -55.5t55.5 -22.5t55.5 22.5t22.5 55.5t-22.5 55.5t-55.5 22.5t-55.5 -22.5t-22.5 -55.5z" />
    <glyph glyph-name="ampersand" unicode="&#x26;" horiz-adv-x="776" 
d="M531 0l-49 52q-51 -40 -94 -55.5t-110 -15.5q-68 0 -117.5 18.5t-75.5 49t-38 62.5t-12 66q0 41 16 76.5t42.5 59.5t52 39.5t53.5 25.5q-55 64 -55 138q0 79 60 135t168 56q60 0 104.5 -17.5t68 -47t35 -61t11.5 -64.5q0 -64 -33 -108.5t-94 -82.5l44 -48l113 99
l120 -125l-108 -96l143 -156h-245zM363 178l-64 77q-2 -1 -9 -6t-9 -6t-7.5 -5.5t-7 -6l-6 -6t-5.5 -7t-3.5 -7t-3 -8.5t-1.5 -9t-1 -11q0 -19 14 -29.5t35 -10.5q32 0 68 35zM370 441q53 35 53 70q0 23 -14 33t-31 10q-15 0 -28 -11t-13 -36q0 -31 33 -66z" />
    <glyph glyph-name="quotesingle" unicode="'" horiz-adv-x="226" 
d="M176 700l-35 -203h-56l-35 203h126z" />
    <glyph glyph-name="parenleft" unicode="(" horiz-adv-x="316" 
d="M302 -164l-112 -60q-158 228 -158 490t158 490l112 -60q-119 -207 -119 -430t119 -430z" />
    <glyph glyph-name="parenright" unicode=")" horiz-adv-x="317" 
d="M14 696l112 60q159 -226 159 -490t-159 -490l-112 60q55 93 87.5 207t32.5 223t-32.5 223t-87.5 207z" />
    <glyph glyph-name="asterisk" unicode="*" horiz-adv-x="496" 
d="M185 735h126l-14 -132l108 78l63 -109l-122 -54l122 -54l-64 -109l-107 78l14 -132h-126l14 132l-107 -78l-64 109l122 54l-122 54l63 109l108 -78z" />
    <glyph glyph-name="plus" unicode="+" horiz-adv-x="644" 
d="M49 294v106h220v220h106v-220h220v-106h-220v-220h-106v220h-220z" />
    <glyph glyph-name="comma" unicode="," horiz-adv-x="392" 
d="M28 -140l98 315h238l-182 -315h-154z" />
    <glyph glyph-name="hyphen" unicode="-" horiz-adv-x="385" 
d="M28 364h329v-154h-329v154z" />
    <glyph glyph-name="hyphen" unicode="&#xad;" horiz-adv-x="385" 
d="M28 364h329v-154h-329v154z" />
    <glyph glyph-name="period" unicode="." horiz-adv-x="378" 
d="M63 91q0 52 37.5 80.5t88.5 28.5t88.5 -28.5t37.5 -80.5t-37.5 -80t-88.5 -28t-88.5 28t-37.5 80z" />
    <glyph glyph-name="slash" unicode="/" horiz-adv-x="533" 
d="M21 -196l365 931h126l-365 -931h-126z" />
    <glyph glyph-name="zero" unicode="0" 
d="M336 -14q-21 0 -41 1.5t-52 9.5t-58.5 22t-56 41.5t-50 64t-33.5 94t-13 128.5q0 72 13 130.5t33 95.5t49.5 65t56 42t59 22t52 10t41.5 2t41.5 -2t52 -10t59 -22t56 -42t49.5 -65t33 -95.5t13 -130.5q0 -71 -13 -128.5t-33.5 -94t-50 -64t-56 -41.5t-58.5 -22t-52 -9.5
t-41 -1.5zM336 182q22 0 38 11.5t24 26.5t12.5 40.5t5 43t0.5 43.5q0 27 -0.5 45t-5 44.5t-12.5 42t-24 27.5t-38 12t-38 -12t-24 -27.5t-12.5 -42t-5 -44.5t-0.5 -45q0 -26 0.5 -43.5t5 -43t12.5 -40.5t24 -26.5t38 -11.5z" />
    <glyph glyph-name="one" unicode="1" horiz-adv-x="673" 
d="M256 0v507h-105v193h343v-700h-238z" />
    <glyph glyph-name="two" unicode="2" 
d="M616 0h-602l348 392q27 29 27 63q0 29 -17.5 46t-47.5 17q-36 0 -51.5 -24.5t-16.5 -52.5h-217q1 32 6.5 62.5t24.5 70.5t49 69.5t85.5 50t128.5 20.5q134 0 212 -61t78 -171q0 -46 -12.5 -84.5t-43 -78t-52.5 -62.5t-71 -68h172v-189z" />
    <glyph glyph-name="three" unicode="3" 
d="M29 245h229q0 -17 4 -31.5t21.5 -29t47.5 -14.5q60 0 60 63q0 58 -80 58h-39v136h34q18 0 29.5 1.5t25.5 15t14 39.5q0 20 -14.5 33.5t-37.5 13.5q-31 0 -44 -16.5t-13 -37.5h-221q5 47 21 84.5t36.5 62t48 42.5t51 27t51 14.5t43 6.5t30.5 1q115 0 197 -48.5t82 -144.5
q0 -61 -33 -100t-84 -49v-3q18 -4 37 -12t45 -26.5t42.5 -53.5t16.5 -81q0 -90 -75 -150t-236 -60q-66 0 -117.5 18t-81.5 44.5t-50.5 63t-28.5 68t-11 65.5z" />
    <glyph glyph-name="four" unicode="4" 
d="M342 0v133h-328v179l288 388h264v-385h85v-182h-85v-133h-224zM356 315v193l-138 -193h138z" />
    <glyph glyph-name="five" unicode="5" 
d="M597 518h-302l-11 -58q48 5 72 5q134 0 203.5 -63t69.5 -158q0 -49 -19.5 -93.5t-57.5 -82t-103 -60t-148 -22.5q-157 0 -265 56l25 182h6q90 -63 178 -63q132 0 132 87q0 12 -5 23.5t-18.5 26t-44.5 23t-75 8.5q-68 0 -150 -21h-12l82 392h443v-182z" />
    <glyph glyph-name="six" unicode="6" 
d="M281 700h271l-174 -235q112 14 188.5 -51t76.5 -180q0 -113 -83.5 -180.5t-226.5 -67.5q-132 0 -218 70t-86 199q0 93 66 184zM335 161q36 0 53 23t17 51q0 27 -17 50t-53 23q-32 0 -51 -21t-19 -52q0 -32 19 -53t51 -21z" />
    <glyph glyph-name="seven" unicode="7" 
d="M66 0l263 511h-287v189h630l-333 -700h-273z" />
    <glyph glyph-name="eight" unicode="8" 
d="M492 372v-2q19 -5 36.5 -11.5t39.5 -21t38 -33t27 -48t11 -64.5q0 -24 -5.5 -47.5t-25 -53.5t-51 -52t-90.5 -37.5t-136 -15.5t-136 15.5t-90.5 37.5t-51 52t-25 53.5t-5.5 47.5q0 35 11 64.5t27 48t38 33t39.5 21t36.5 11.5v2q-45 14 -80.5 52t-35.5 103q0 88 77 137.5
t195 49.5t195 -49.5t77 -137.5q0 -65 -35.5 -103t-80.5 -52zM336 439q24 0 39.5 15.5t15.5 38.5t-13 36.5t-23.5 16t-18.5 2.5q-19 0 -37 -12.5t-18 -42.5q0 -23 15.5 -38.5t39.5 -15.5zM336 152q29 0 49.5 17.5t20.5 49.5t-20.5 49t-49.5 17t-49.5 -17t-20.5 -49
t20.5 -49.5t49.5 -17.5z" />
    <glyph glyph-name="nine" unicode="9" 
d="M398 0h-292l188 235q-112 -14 -188.5 51t-76.5 180q0 113 83.5 180.5t226.5 67.5q146 0 225 -75t79 -188q0 -108 -71 -206zM337 539q-36 0 -53 -23t-17 -50q0 -28 17 -51t53 -23q32 0 51 21t19 53q0 31 -19 52t-51 21z" />
    <glyph glyph-name="colon" unicode=":" horiz-adv-x="378" 
d="M63 392q0 52 37.5 80.5t88.5 28.5t88.5 -28.5t37.5 -80.5t-37.5 -80t-88.5 -28t-88.5 28t-37.5 80zM63 91q0 52 37.5 80.5t88.5 28.5t88.5 -28.5t37.5 -80.5t-37.5 -80t-88.5 -28t-88.5 28t-37.5 80z" />
    <glyph glyph-name="semicolon" unicode=";" horiz-adv-x="399" 
d="M119 392q0 52 37.5 80.5t88.5 28.5t88.5 -28.5t37.5 -80.5t-37.5 -80t-88.5 -28t-88.5 28t-37.5 80zM28 -140l98 315h238l-182 -315h-154z" />
    <glyph glyph-name="less" unicode="&#x3c;" horiz-adv-x="500" 
d="M50 390l400 200v-100l-292 -140l292 -140v-100l-400 200v80z" />
    <glyph glyph-name="equal" unicode="=" horiz-adv-x="644" 
d="M49 378v106h546v-106h-546zM49 209v106h546v-106h-546z" />
    <glyph glyph-name="greater" unicode="&#x3e;" horiz-adv-x="500" 
d="M450 310l-400 -200v100l292 140l-292 140v100l400 -200v-80z" />
    <glyph glyph-name="question" unicode="?" horiz-adv-x="581" 
d="M246 483h-218q0 21 3.5 42.5t18.5 59t40.5 64.5t76 48t117.5 21q124 0 196.5 -59t72.5 -161q0 -87 -39 -139q-51 -65 -129 -66v-55h-196v179h73q81 0 81 67q0 23 -12 40.5t-39 17.5q-25 0 -35.5 -17.5t-10.5 -33.5v-8zM161 91q0 52 37.5 80.5t88.5 28.5t88.5 -28.5
t37.5 -80.5t-37.5 -80t-88.5 -28t-88.5 28t-37.5 80z" />
    <glyph glyph-name="at" unicode="@" horiz-adv-x="917" 
d="M662 530l-56 -256q-10 -48 38 -48q59 0 94 41.5t35 102.5q0 137 -92 215.5t-228 78.5q-140 0 -224.5 -88.5t-84.5 -215.5q0 -80 28.5 -143.5t75.5 -101.5t102 -57.5t113 -19.5q85 0 156 46l33 -70q-85 -54 -189 -54q-98 0 -175.5 32t-125.5 87t-73 124t-25 147
q0 171 112 280.5t277 109.5q90 0 161.5 -25.5t115 -65t72.5 -90.5t40 -98t11 -91q0 -70 -36.5 -121.5t-88 -74t-109.5 -22.5q-63 0 -101 62q-54 -62 -118 -62q-62 0 -110.5 38t-48.5 116q0 92 67.5 162.5t156.5 70.5q59 0 83 -51l9 42h105zM421 250q50 0 76.5 42.5
t26.5 78.5q0 74 -61 74q-46 0 -70.5 -40t-24.5 -87q0 -68 53 -68z" />
    <glyph glyph-name="A" unicode="A" horiz-adv-x="792" 
d="M-7 0l249 700h308l249 -700h-287l-28 102h-176l-28 -102h-287zM396 455l-49 -178h98z" />
    <glyph glyph-name="B" unicode="B" horiz-adv-x="742" 
d="M63 700h395q57 0 100 -13.5t65.5 -33t36 -46t17 -46t3.5 -39.5q0 -55 -36.5 -93.5t-85.5 -52.5v-2q69 -12 112.5 -60.5t43.5 -118.5q0 -31 -10.5 -61.5t-34.5 -62t-73.5 -51.5t-118.5 -20h-414v700zM343 434h26q62 0 62 49t-62 49h-26v-98zM343 168h34q70 0 70 53
q0 52 -70 52h-34v-105z" />
    <glyph glyph-name="C" unicode="C" horiz-adv-x="645" 
d="M610 267v-245q-82 -43 -188 -43q-172 0 -281 102t-109 269q0 91 35 164.5t91.5 117t123.5 66.5t136 23q116 0 192 -53v-245q-30 37 -72.5 55.5t-82.5 18.5q-84 0 -120 -47t-36 -107q0 -72 46 -106t109 -34q85 0 156 64z" />
    <glyph glyph-name="D" unicode="D" horiz-adv-x="796" 
d="M63 0v700h326q86 0 153.5 -21.5t108.5 -56t67 -82t36 -93.5t10 -97q0 -72 -22.5 -134t-66.5 -111t-117.5 -77t-168.5 -28h-326zM343 203h22q14 0 27 1.5t33.5 10t35 23.5t25.5 44t11 68q0 73 -35.5 110t-96.5 37h-22v-294z" />
    <glyph glyph-name="E" unicode="E" horiz-adv-x="595" 
d="M63 0v700h490v-203h-210v-59h189v-168h-189v-67h210v-203h-490z" />
    <glyph glyph-name="F" unicode="F" horiz-adv-x="581" 
d="M63 0v700h490v-203h-210v-84h189v-189h-189v-224h-280z" />
    <glyph glyph-name="G" unicode="G" horiz-adv-x="862" 
d="M417 420h413v-84q0 -161 -101 -259t-284 -98q-191 0 -302 101.5t-111 264.5q0 73 23.5 138t70.5 119.5t128.5 86.5t187.5 32q237 0 339 -171l-204 -102q-38 70 -125 70q-69 0 -111 -46.5t-42 -125.5q0 -70 40 -120.5t112 -50.5q50 0 80.5 23.5t32.5 60.5h-147v161z" />
    <glyph glyph-name="H" unicode="H" horiz-adv-x="826" 
d="M63 0v700h280v-241h140v241h280v-700h-280v256h-140v-256h-280z" />
    <glyph glyph-name="I" unicode="I" horiz-adv-x="406" 
d="M63 0v700h280v-700h-280z" />
    <glyph glyph-name="J" unicode="J" horiz-adv-x="567" 
d="M231 700h280v-458q0 -17 -0.5 -29.5t-5.5 -42t-14.5 -51.5t-29.5 -50t-47.5 -46.5t-72 -31t-100.5 -12.5q-157 0 -241 123l119 136q18 -56 64 -56q22 0 35 15t13 42v461z" />
    <glyph glyph-name="K" unicode="K" horiz-adv-x="805" 
d="M63 0v700h280v-252l155 252h307l-238 -332l245 -368h-322l-147 266v-266h-280z" />
    <glyph glyph-name="L" unicode="L" horiz-adv-x="553" 
d="M63 0v700h280v-497h196v-203h-476z" />
    <glyph glyph-name="M" unicode="M" horiz-adv-x="1058" 
d="M14 0l98 700h308l109 -399l109 399h308l98 -700h-272l-32 364l-106 -364h-210l-106 364l-32 -364h-272z" />
    <glyph glyph-name="N" unicode="N" horiz-adv-x="840" 
d="M63 0v700h263l185 -329v329h266v-700h-259l-189 336v-336h-266z" />
    <glyph glyph-name="O" unicode="O" horiz-adv-x="874" 
d="M437 -21q-99 0 -178 31t-127.5 84t-74 118.5t-25.5 137.5t25.5 137.5t74 118.5t127.5 84t178 31t178 -31t127.5 -84t74 -118.5t25.5 -137.5t-25.5 -137.5t-74 -118.5t-127.5 -84t-178 -31zM437 203q57 0 97.5 38.5t40.5 108.5t-40.5 108.5t-97.5 38.5t-97.5 -38.5
t-40.5 -108.5t40.5 -108.5t97.5 -38.5z" />
    <glyph glyph-name="P" unicode="P" horiz-adv-x="736" 
d="M63 0v700h365q80 0 137.5 -23t87 -61t42.5 -76.5t13 -80.5t-13 -81t-42.5 -77t-87 -61t-137.5 -23h-85v-217h-280zM343 518v-119h31q67 0 67 60q0 59 -67 59h-31z" />
    <glyph glyph-name="Q" unicode="Q" horiz-adv-x="875" 
d="M854 0l-166 -79l-73 89q-77 -31 -178 -31q-99 0 -178 31t-127.5 83.5t-74 118t-25.5 138.5q0 72 25.5 137.5t74 118.5t127.5 84t178 31q178 0 292 -100t114 -271q0 -141 -84 -240zM421 254l149 55q6 21 6 41q0 56 -34 101.5t-105 45.5q-57 0 -97.5 -38.5t-40.5 -108.5
t40.5 -108.5t97.5 -38.5q9 0 27 2z" />
    <glyph glyph-name="R" unicode="R" horiz-adv-x="756" 
d="M63 0v700h388q33 0 65.5 -5.5t69 -21t63.5 -40t45 -66.5t18 -96q0 -75 -33 -121.5t-100 -76.5l177 -273h-321l-92 217v-217h-280zM343 518v-133h28q74 0 74 67q0 66 -74 66h-28z" />
    <glyph glyph-name="S" unicode="S" horiz-adv-x="642" 
d="M7 92l106 156q100 -80 175 -80q59 0 59 40q0 14 -6.5 24t-24 18t-27.5 11t-37 10q-23 6 -31 8.5t-35 12.5t-41 18.5t-36.5 25.5t-34 35.5t-20.5 46t-9 59.5q0 102 73.5 173t213.5 71q149 0 254 -70l-81 -154q-79 42 -129 42q-65 0 -65 -41q0 -8 2.5 -14.5t8.5 -11.5
t11 -8.5t16 -7t17.5 -5t21.5 -5t21 -5.5q44 -11 77.5 -25.5t64 -38.5t47 -60.5t16.5 -85.5q0 -117 -86 -184.5t-228 -67.5q-147 0 -293 113z" />
    <glyph glyph-name="T" unicode="T" horiz-adv-x="588" 
d="M154 0v497h-147v203h574v-203h-147v-497h-280z" />
    <glyph glyph-name="U" unicode="U" horiz-adv-x="826" 
d="M56 700h280v-413q0 -105 77 -105t77 105v413h280v-404q0 -33 -4 -64.5t-25 -80.5t-56 -84t-105.5 -61.5t-166.5 -26.5t-166.5 26.5t-105.5 61.5t-56 84t-25 80.5t-4 64.5v404z" />
    <glyph glyph-name="V" unicode="V" horiz-adv-x="782" 
d="M245 0l-252 700h283l115 -392l115 392h283l-252 -700h-292z" />
    <glyph glyph-name="W" unicode="W" horiz-adv-x="1148" 
d="M574 392l-111 -392h-263l-207 700h301l75 -343l90 343h230l90 -343l75 343h301l-207 -700h-263z" />
    <glyph glyph-name="X" unicode="X" horiz-adv-x="797" 
d="M-7 0l249 368l-224 332h319l62 -133l62 133h306l-213 -322l250 -378h-315l-90 175l-98 -175h-308z" />
    <glyph glyph-name="Y" unicode="Y" horiz-adv-x="700" 
d="M210 0v291l-217 409h280l87 -206l81 206h266l-217 -409v-291h-280z" />
    <glyph glyph-name="Z" unicode="Z" horiz-adv-x="700" 
d="M42 700h665l-301 -497h273v-203h-686l308 497h-259v203z" />
    <glyph glyph-name="bracketleft" unicode="[" horiz-adv-x="343" 
d="M329 -196h-273v931h273v-105h-105v-721h105v-105z" />
    <glyph glyph-name="backslash" unicode="\" horiz-adv-x="533" 
d="M512 -210h-126l-365 945h126z" />
    <glyph glyph-name="bracketright" unicode="]" horiz-adv-x="343" 
d="M14 735h273v-931h-273v105h105v721h-105v105z" />
    <glyph glyph-name="asciicircum" unicode="^" horiz-adv-x="580" 
d="M290 646l-120 -146h-130l156 200h188l156 -200h-130z" />
    <glyph glyph-name="underscore" unicode="_" horiz-adv-x="500" 
d="M0 -110h500v-100h-500v100z" />
    <glyph glyph-name="grave" unicode="`" horiz-adv-x="333" 
d="M-28 700h210l123 -161h-120z" />
    <glyph glyph-name="a" unicode="a" horiz-adv-x="681" 
d="M625 483v-483h-217v50q-60 -71 -157 -71q-89 0 -155 70.5t-66 192.5q0 113 61.5 187.5t159.5 74.5q99 0 157 -73v52h217zM331 147q37 0 60.5 26t23.5 69q0 42 -23.5 68t-60.5 26t-60.5 -26t-23.5 -68q0 -43 23.5 -69t60.5 -26z" />
    <glyph glyph-name="b" unicode="b" horiz-adv-x="681" 
d="M280 735v-295q58 64 150 64q87 0 154 -68.5t67 -193.5q0 -120 -66 -191.5t-155 -71.5q-97 0 -157 71v-50h-217v735h224zM350 147q37 0 60.5 26t23.5 69q0 42 -23.5 68t-60.5 26t-60.5 -26t-23.5 -68q0 -43 23.5 -69t60.5 -26z" />
    <glyph glyph-name="c" unicode="c" horiz-adv-x="472" 
d="M444 199v-185q-70 -35 -151 -35q-113 0 -188 72.5t-75 190.5q0 111 72 186.5t191 75.5q71 0 151 -35v-190q-52 43 -105 43q-38 0 -65 -22t-27 -63q0 -37 29.5 -56.5t70.5 -19.5q46 0 97 38z" />
    <glyph glyph-name="d" unicode="d" horiz-adv-x="681" 
d="M625 735v-735h-217v50q-62 -71 -157 -71t-158 72.5t-63 190.5q0 126 67 194t154 68q92 0 150 -64v295h224zM332 147q38 0 60.5 26t22.5 69q0 42 -22.5 68t-60.5 26t-61.5 -26t-23.5 -68q0 -43 23.5 -69t61.5 -26z" />
    <glyph glyph-name="e" unicode="e" horiz-adv-x="620" 
d="M590 196h-353q-1 -36 19 -63.5t58 -27.5q54 0 66 42h200q-26 -76 -96.5 -122t-180.5 -46q-136 0 -204.5 75.5t-68.5 187.5q0 117 76 189.5t204 72.5q71 0 125 -22.5t83 -55.5t46.5 -77.5t22 -80.5t3.5 -72zM240 294h147q0 34 -19 59t-54 25q-33 0 -52.5 -25.5
t-21.5 -58.5z" />
    <glyph glyph-name="f" unicode="f" horiz-adv-x="392" 
d="M70 0v315h-63v168h63v95q0 167 206 167q49 0 109 -10v-168q-25 10 -46 10q-45 0 -45 -64v-30h91v-168h-91v-315h-224z" />
    <glyph glyph-name="g" unicode="g" horiz-adv-x="674" 
d="M618 483v-469q0 -24 -3.5 -46.5t-21 -58.5t-47.5 -61.5t-91 -45t-143 -19.5q-143 0 -240 48l71 134q60 -42 130 -42q63 0 95.5 29.5t32.5 82.5v17q-55 -52 -136 -52q-108 0 -171.5 75t-63.5 186q0 118 68.5 180.5t155.5 62.5q95 0 147 -70v49h217zM328 154q30 0 55 20.5
t25 70.5t-25 70.5t-55 20.5q-33 0 -57 -23t-24 -68t24 -68t57 -23z" />
    <glyph glyph-name="h" unicode="h" horiz-adv-x="651" 
d="M56 0v735h224v-308q54 77 149 77q173 0 173 -222v-282h-224v273q0 63 -41 63q-25 0 -41 -24t-16 -67v-245h-224z" />
    <glyph glyph-name="i" unicode="i" horiz-adv-x="336" 
d="M56 483h224v-483h-224v483zM42 637q0 47 37 79.5t89 32.5t89 -32.5t37 -79.5t-37 -79.5t-89 -32.5t-89 32.5t-37 79.5z" />
    <glyph glyph-name="j" unicode="j" horiz-adv-x="336" 
d="M56 483h224v-679h-224v679zM42 637q0 47 37 79.5t89 32.5t89 -32.5t37 -79.5t-37 -79.5t-89 -32.5t-89 32.5t-37 79.5z" />
    <glyph glyph-name="k" unicode="k" horiz-adv-x="662" 
d="M56 0v735h224v-437l115 185h252l-178 -227l203 -256h-263l-129 200v-200h-224z" />
    <glyph glyph-name="l" unicode="l" horiz-adv-x="336" 
d="M56 0v735h224v-735h-224z" />
    <glyph glyph-name="m" unicode="m" horiz-adv-x="931" 
d="M266 427q56 77 156 77q87 0 131 -77q59 77 157 77q172 0 172 -222v-282h-210v273q0 63 -41 63q-25 0 -41 -24t-16 -67v-245h-210v273q0 63 -41 63q-25 0 -41 -24t-16 -67v-245h-210v483h210v-56z" />
    <glyph glyph-name="n" unicode="n" horiz-adv-x="651" 
d="M56 0v483h224v-56q54 77 149 77q173 0 173 -222v-282h-224v273q0 63 -41 63q-25 0 -41 -24t-16 -67v-245h-224z" />
    <glyph glyph-name="o" unicode="o" horiz-adv-x="644" 
d="M322 -21q-144 0 -218 75.5t-74 187.5t73.5 187t218.5 75t218.5 -75t73.5 -187t-74 -187.5t-218 -75.5zM322 161q39 0 57 25.5t18 55.5q0 29 -18 54.5t-57 25.5t-57 -25.5t-18 -54.5q0 -30 18 -55.5t57 -25.5z" />
    <glyph glyph-name="p" unicode="p" horiz-adv-x="681" 
d="M56 483h217v-52q54 73 157 73q55 0 103.5 -27.5t83 -89t34.5 -145.5q0 -110 -60 -186.5t-161 -76.5q-92 0 -150 63v-238h-224v679zM350 147q37 0 60.5 26t23.5 69q0 42 -23.5 68t-60.5 26t-60.5 -26t-23.5 -68q0 -43 23.5 -69t60.5 -26z" />
    <glyph glyph-name="q" unicode="q" horiz-adv-x="681" 
d="M401 -196v238q-58 -63 -150 -63q-89 0 -155 71.5t-66 191.5q0 125 67 193.5t154 68.5q100 0 157 -73v52h217v-679h-224zM331 147q37 0 60.5 26t23.5 69q0 42 -23.5 68t-60.5 26t-60.5 -26t-23.5 -68q0 -43 23.5 -69t60.5 -26z" />
    <glyph glyph-name="r" unicode="r" horiz-adv-x="434" 
d="M56 0v483h217v-63q56 84 154 77v-196q-22 14 -50 14q-46 0 -71.5 -36t-25.5 -87v-192h-224z" />
    <glyph glyph-name="s" unicode="s" horiz-adv-x="486" 
d="M21 30l56 128q70 -39 113 -39q14 0 24.5 2.5t15.5 6t7.5 8.5t3 7t0.5 4q0 15 -10.5 23.5t-41.5 14.5q-78 13 -115.5 46t-37.5 100q0 74 55.5 123.5t164.5 49.5q107 0 188 -45l-54 -112q-52 31 -97 31q-23 0 -36 -8t-15.5 -14.5t-2.5 -13.5t2 -12.5t7.5 -9.5t10 -6.5
t13.5 -4.5t14.5 -3t16.5 -2.5t16 -2.5q132 -21 132 -147q0 -17 -2 -32.5t-15 -43.5t-36 -48t-70 -35.5t-111 -15.5q-115 0 -196 51z" />
    <glyph glyph-name="t" unicode="t" horiz-adv-x="385" 
d="M70 0v315h-63v168h63v147h224v-147h84v-168h-84v-315h-224z" />
    <glyph glyph-name="u" unicode="u" horiz-adv-x="644" 
d="M49 483h224v-253q0 -69 49 -69t49 69v253h224v-260q0 -27 -2 -49t-17 -61t-41.5 -65.5t-81.5 -47.5t-131 -21t-131 21t-81.5 47.5t-41.5 65.5t-17 61t-2 49v260z" />
    <glyph glyph-name="v" unicode="v" horiz-adv-x="526" 
d="M172 0l-182 483h210l63 -231l63 231h210l-182 -483h-182z" />
    <glyph glyph-name="w" unicode="w" horiz-adv-x="820" 
d="M410 217l-60 -217h-166l-194 483h217l67 -217l64 217h144l64 -217l67 217h217l-194 -483h-166z" />
    <glyph glyph-name="x" unicode="x" horiz-adv-x="616" 
d="M-7 0l196 256l-175 227h238l56 -115l56 115h238l-175 -227l196 -256h-231l-84 137l-84 -137h-231z" />
    <glyph glyph-name="y" unicode="y" horiz-adv-x="624" 
d="M-10 483h252l103 -210l73 210h216l-294 -679h-224l125 252z" />
    <glyph glyph-name="z" unicode="z" horiz-adv-x="532" 
d="M28 483h497l-204 -315h183v-168h-504l201 315h-173v168z" />
    <glyph glyph-name="braceleft" unicode="{" horiz-adv-x="483" 
d="M100 196v100q94 8 94 135q0 19 -2 59q-2 38 -2 57q0 53 18 89.5t48.5 53t61.5 22.5t65 4v-80q-86 -13 -86 -93q0 -59 3.5 -96t3.5 -73q0 -21 -3 -35t-13 -31t-34 -31.5t-61 -26.5v-8q37 -12 61 -26.5t34 -31.5t13 -31t3 -35q0 -36 -3.5 -73t-3.5 -96q0 -80 86 -93v-80
q-34 -2 -65 4t-61.5 22.5t-48.5 53t-18 89.5q0 19 2 57q2 40 2 59q0 127 -94 135z" />
    <glyph glyph-name="bar" unicode="|" horiz-adv-x="226" 
d="M50 -224v1053h126v-1053h-126z" />
    <glyph glyph-name="braceright" unicode="}" horiz-adv-x="483" 
d="M383 296v-100q-94 -8 -94 -135q0 -19 2 -59q2 -38 2 -57q0 -53 -18 -89.5t-48.5 -53t-61.5 -22.5t-65 -4v80q86 13 86 93q0 59 -3.5 96t-3.5 73q0 21 3 35t13 31t34 31.5t61 26.5v8q-37 12 -61 26.5t-34 31.5t-13 31t-3 35q0 36 3.5 73t3.5 96q0 80 -86 93v80q34 2 65 -4
t61.5 -22.5t48.5 -53t18 -89.5q0 -19 -2 -57q-2 -40 -2 -59q0 -127 94 -135z" />
    <glyph glyph-name="asciitilde" unicode="~" horiz-adv-x="600" 
d="M50 290v100q48 50 110 50q38 0 110 -27q20 -7 54.5 -20t49 -18.5t33.5 -10t33 -4.5q58 0 110 50v-100q-48 -50 -110 -50q-9 0 -19 1t-22 4t-21 5.5t-26 8.5t-26 9.5t-32 12t-34 12.5q-73 27 -100 27q-58 0 -110 -50z" />
    <glyph glyph-name="currency" unicode="&#xa4;" horiz-adv-x="692" 
d="M123 198q-47 68 -47 152t47 152l-73 74l70 70l74 -73q68 47 152 47t152 -47l74 73l70 -70l-73 -74q47 -68 47 -152t-47 -152l73 -74l-70 -70l-74 73q-68 -47 -152 -47t-152 47l-74 -73l-70 70zM166 350q0 -75 52.5 -127.5t127.5 -52.5t127.5 52.5t52.5 127.5t-52.5 127.5
t-127.5 52.5t-127.5 -52.5t-52.5 -127.5z" />
    <glyph glyph-name="brokenbar" unicode="&#xa6;" horiz-adv-x="226" 
d="M50 430v399h126v-399h-126zM50 175h126v-399h-126v399z" />
    <glyph glyph-name="section" unicode="&#xa7;" horiz-adv-x="645" 
d="M48 21h221v-11q0 -47 48 -47q18 0 29.5 11t11.5 26q0 47 -66 60q-117 25 -162 47q-95 48 -95 154q0 58 28.5 97.5t77.5 54.5q-77 43 -77 127q0 77 67.5 132.5t195.5 55.5q75 0 130 -18t84.5 -48.5t43 -63.5t13.5 -70h-214v9q0 17 -11.5 27.5t-31.5 10.5q-21 0 -34 -12
t-13 -32q0 -18 16.5 -31.5t32.5 -18.5t43 -11q31 -7 50.5 -13t49.5 -17t49 -25.5t38 -34.5t28 -48.5t9 -63.5q0 -59 -28 -96t-66 -53q69 -31 69 -123q0 -71 -71.5 -124.5t-201.5 -53.5q-72 0 -125 18.5t-81 49.5t-41.5 64t-16.5 71zM323 207q30 0 50 18t20 48q0 29 -20 48
t-50 19t-50 -19t-20 -48q0 -30 20 -48t50 -18z" />
    <glyph glyph-name="copyright" unicode="&#xa9;" horiz-adv-x="840" 
d="M565 161q-67 -35 -134 -35q-95 0 -157 64t-62 160q0 90 61 156.5t158 66.5q73 0 134 -37v-117q-52 39 -100 39q-46 0 -80 -26.5t-34 -81.5q0 -53 30.5 -81t83.5 -28q51 0 100 36v-116zM50 350q0 152 109 261t261 109t261 -109t109 -261t-109 -261t-261 -109t-261 109
t-109 261zM112 350q0 -128 90 -218t218 -90t218 90t90 218t-90 218t-218 90t-218 -90t-90 -218z" />
    <glyph glyph-name="guillemotleft" unicode="&#xab;" horiz-adv-x="539" 
d="M28 252l171 231l95 -59l-126 -172l126 -172l-95 -59zM245 252l171 231l95 -59l-126 -172l126 -172l-95 -59z" />
    <glyph glyph-name="logicalnot" unicode="&#xac;" horiz-adv-x="640" 
d="M50 210v100h540v-250h-120v150h-420z" />
    <glyph glyph-name="registered" unicode="&#xae;" horiz-adv-x="846" 
d="M253 143v413h194q69 0 106.5 -36.5t37.5 -93.5q0 -54 -26.5 -80t-60.5 -33l101 -170h-135l-86 163h-5v-163h-126zM379 458v-70h51q5 0 11 1.5t13 10.5t7 24q0 10 -2 16t-11.5 12t-27.5 6h-41zM53 350q0 152 109 261t261 109t261 -109t109 -261t-109 -261t-261 -109
t-261 109t-109 261zM115 350q0 -128 90.5 -218t217.5 -90t217.5 90t90.5 218t-90.5 218t-217.5 90t-217.5 -90t-90.5 -218z" />
    <glyph glyph-name="degree" unicode="&#xb0;" horiz-adv-x="336" 
d="M56 609q0 47 33 79.5t79 32.5t79 -32.5t33 -79.5t-33 -79.5t-79 -32.5t-79 32.5t-33 79.5zM106 609q0 -26 18 -44t44 -18t44 18t18 44t-18 44t-44 18t-44 -18t-18 -44z" />
    <glyph glyph-name="plusminus" unicode="&#xb1;" horiz-adv-x="646" 
d="M50 430v106h220v220h106v-220h220v-106h-220v-220h-106v220h-220zM50 44v106h546v-106h-546z" />
    <glyph glyph-name="mu" unicode="&#xb5;" horiz-adv-x="693" 
d="M56 483h224v-245q0 -37 17.5 -64t52.5 -27t52.5 27t17.5 64v245h224v-483h-203v49q-28 -56 -84 -56q-51 0 -77 42v-231h-224v679z" />
    <glyph glyph-name="mu" unicode="&#x3bc;" horiz-adv-x="693" 
d="M56 483h224v-245q0 -37 17.5 -64t52.5 -27t52.5 27t17.5 64v245h224v-483h-203v49q-28 -56 -84 -56q-51 0 -77 42v-231h-224v679z" />
    <glyph glyph-name="paragraph" unicode="&#xb6;" horiz-adv-x="582" 
d="M203 -210v595q-82 2 -128.5 55.5t-46.5 119.5q0 73 51.5 124t123.5 51h126v-945h-126zM413 -210v945h126v-945h-126z" />
    <glyph glyph-name="periodcentered" unicode="&#xb7;" horiz-adv-x="250" 
d="M23 273q0 42 30 72t72 30t72 -30t30 -72t-30 -72t-72 -30t-72 30t-30 72z" />
    <glyph glyph-name="periodcentered" unicode="&#x2219;" horiz-adv-x="250" 
d="M23 273q0 42 30 72t72 30t72 -30t30 -72t-30 -72t-72 -30t-72 30t-30 72z" />
    <glyph glyph-name="guillemotright" unicode="&#xbb;" horiz-adv-x="539" 
d="M294 252l-171 -231l-95 59l126 172l-126 172l95 59zM511 252l-171 -231l-95 59l126 172l-126 172l95 59z" />
    <glyph glyph-name="afii10023" unicode="&#x401;" horiz-adv-x="595" 
d="M63 0v700h490v-196h-210v-66h189v-168h-189v-74h210v-196h-490zM193 735q-45 0 -68 23.5t-23 53.5t23 53.5t68 23.5t68 -23.5t23 -53.5t-23 -53.5t-68 -23.5zM431 735q-45 0 -68 23.5t-23 53.5t23 53.5t68 23.5t68 -23.5t23 -53.5t-23 -53.5t-68 -23.5z" />
    <glyph glyph-name="afii10051" unicode="&#x402;" horiz-adv-x="839" 
d="M147 0v504h-140v196h700v-196h-280v-142q81 66 170 66q94 0 154 -59t60 -152q0 -220 -277 -220q-28 0 -57 3v140q33 -6 50.5 12t17.5 37q0 9 -3 19t-15.5 20.5t-33.5 10.5q-36 0 -66 -45v-194h-280z" />
    <glyph glyph-name="afii10052" unicode="&#x403;" horiz-adv-x="567" 
d="M63 0v700h490v-203h-210v-497h-280zM152 735l151 154h224l-228 -154h-147z" />
    <glyph glyph-name="afii10053" unicode="&#x404;" horiz-adv-x="669" 
d="M634 231v-203q-97 -49 -224 -49q-173 0 -275.5 108t-102.5 273q0 158 107 259.5t269 101.5q122 0 226 -52v-200q-80 56 -164 56q-57 0 -99.5 -25.5t-52.5 -69.5h232v-153h-243q7 -40 40 -71t105 -31q97 0 182 56z" />
    <glyph glyph-name="afii10054" unicode="&#x405;" horiz-adv-x="641" 
d="M7 92l106 156q100 -80 175 -80q59 0 59 40q0 37 -57 53q-7 2 -37.5 11t-42.5 13t-39.5 15t-40.5 20t-32.5 25.5t-28.5 34t-16.5 43t-7.5 54.5q0 102 73.5 173t213.5 71q149 0 254 -70l-81 -154q-79 42 -129 42q-65 0 -65 -41q0 -8 2.5 -14.5t8.5 -11.5t11 -8.5t16 -7
t17.5 -5t21.5 -5t21 -5.5q44 -11 77 -25.5t63.5 -38.5t47 -60.5t16.5 -85.5q0 -117 -86 -184.5t-227 -67.5q-146 0 -293 113z" />
    <glyph glyph-name="afii10055" unicode="&#x406;" horiz-adv-x="406" 
d="M63 0v700h280v-700h-280z" />
    <glyph glyph-name="afii10056" unicode="&#x407;" horiz-adv-x="434" 
d="M77 0v700h280v-700h-280zM112 735q-45 0 -68 23.5t-23 53.5t23 53.5t68 23.5t68 -23.5t23 -53.5t-23 -53.5t-68 -23.5zM322 735q-45 0 -68 23.5t-23 53.5t23 53.5t68 23.5t68 -23.5t23 -53.5t-23 -53.5t-68 -23.5z" />
    <glyph glyph-name="afii10057" unicode="&#x408;" horiz-adv-x="567" 
d="M231 700h280v-458q0 -17 -0.5 -29.5t-5.5 -42t-14.5 -51.5t-29.5 -50t-47.5 -46.5t-72 -31t-100.5 -12.5q-157 0 -241 123l119 136q18 -56 64 -56q22 0 35 15t13 42v461z" />
    <glyph glyph-name="afii10058" unicode="&#x409;" horiz-adv-x="1169" 
d="M140 700h644v-259h75q83 0 141.5 -20t87.5 -54t41 -69.5t12 -76.5q0 -42 -11.5 -77t-39.5 -69.5t-85 -54.5t-139 -20h-362v497h-112v-262q0 -27 -1 -44t-6.5 -45.5t-16.5 -47.5t-32 -41.5t-50.5 -36t-76 -22.5t-104.5 -9q-43 0 -105 11v196q26 -7 44 -7q27 0 46 9
t28.5 21t14.5 35.5t6 40.5t1 47v358zM784 168h34q64 0 64 53q0 52 -64 52h-34v-105z" />
    <glyph glyph-name="afii10059" unicode="&#x40a;" horiz-adv-x="1148" 
d="M63 0v700h280v-252h140v252h280v-252h75q83 0 141.5 -20.5t87.5 -55.5t41 -71.5t12 -79.5q0 -42 -11.5 -77t-39.5 -69.5t-85 -54.5t-139 -20h-362v256h-140v-256h-280zM763 168h34q64 0 64 56t-64 56h-34v-112z" />
    <glyph glyph-name="afii10060" unicode="&#x40b;" horiz-adv-x="868" 
d="M147 0v504h-140v196h686v-196h-266v-155q83 72 181 72q102 0 156.5 -55.5t54.5 -161.5v-204h-280v154q0 64 -44 64q-40 0 -68 -51v-167h-280z" />
    <glyph glyph-name="afii10061" unicode="&#x40c;" horiz-adv-x="805" 
d="M63 0v700h280v-252l155 252h307l-238 -332l245 -368h-322l-147 266v-266h-280zM271 735l151 154h224l-228 -154h-147z" />
    <glyph glyph-name="afii10062" unicode="&#x40e;" horiz-adv-x="791" 
d="M0 700h329l99 -214l80 214h290l-301 -700h-294l95 193zM395 735q-85 0 -143 40.5t-67 113.5h147q2 -24 10 -39.5t20 -21.5t19 -7.5t14 -1.5t14 1.5t19 7.5t20 21.5t10 39.5h147q-3 -27 -13 -48q-48 -106 -197 -106z" />
    <glyph glyph-name="afii10145" unicode="&#x40f;" horiz-adv-x="833" 
d="M63 0v700h280v-497h147v497h280v-700h-228v-196h-251v196h-228z" />
    <glyph glyph-name="afii10017" unicode="&#x410;" horiz-adv-x="792" 
d="M-7 0l249 700h308l249 -700h-287l-28 102h-176l-28 -102h-287zM396 455l-49 -178h98z" />
    <glyph glyph-name="afii10018" unicode="&#x411;" horiz-adv-x="741" 
d="M63 0v700h581v-203h-301v-63h96q81 0 138 -19t85 -52t39.5 -67t11.5 -75q0 -42 -11.5 -77.5t-39.5 -69.5t-85 -54t-138 -20h-376zM343 168h27q70 0 70 53q0 52 -70 52h-27v-105z" />
    <glyph glyph-name="afii10019" unicode="&#x412;" horiz-adv-x="742" 
d="M63 700h395q57 0 100 -13.5t65.5 -33t36 -46t17 -46t3.5 -39.5q0 -55 -36.5 -93.5t-85.5 -52.5v-2q69 -12 112.5 -60.5t43.5 -118.5q0 -31 -10.5 -61.5t-34.5 -62t-73.5 -51.5t-118.5 -20h-414v700zM343 434h26q62 0 62 49t-62 49h-26v-98zM343 168h34q70 0 70 53
q0 52 -70 52h-34v-105z" />
    <glyph glyph-name="afii10020" unicode="&#x413;" horiz-adv-x="567" 
d="M63 0v700h490v-203h-210v-497h-280z" />
    <glyph glyph-name="afii10021" unicode="&#x414;" horiz-adv-x="847" 
d="M140 700h616v-497h84v-343h-238v140h-364v-140h-238v343q33 2 58 13.5t39.5 32.5t24 41.5t13 49.5t4.5 46.5t1 42.5v271zM392 497v-99q0 -144 -64 -195h148v294h-84z" />
    <glyph glyph-name="afii10022" unicode="&#x415;" horiz-adv-x="595" 
d="M63 0v700h490v-203h-210v-59h189v-168h-189v-67h210v-203h-490z" />
    <glyph glyph-name="afii10024" unicode="&#x416;" horiz-adv-x="1176" 
d="M462 0v266l-147 -266h-322l252 364l-234 336h315l136 -255v255h252v-255l136 255h315l-234 -336l252 -364h-322l-147 266v-266h-252z" />
    <glyph glyph-name="afii10025" unicode="&#x417;" horiz-adv-x="651" 
d="M101 494l-80 161q132 66 287 66q139 0 220.5 -56.5t81.5 -142.5q0 -55 -34.5 -98t-87.5 -60v-3q18 -5 36.5 -14t43 -27.5t40 -51t15.5 -74.5q0 -95 -84 -155t-218 -60q-94 0 -159.5 19t-154.5 72l102 158q31 -27 74 -47t80 -20q34 0 57 13.5t23 43.5q0 24 -18.5 36
t-63.5 12h-110v175h103q42 0 63.5 9.5t21.5 38.5q0 50 -81 50q-80 0 -157 -45z" />
    <glyph glyph-name="afii10026" unicode="&#x418;" horiz-adv-x="840" 
d="M63 700h266v-349l196 349h252v-700h-266v336l-196 -336h-252v700z" />
    <glyph glyph-name="afii10027" unicode="&#x419;" horiz-adv-x="840" 
d="M63 700h266v-349l196 349h252v-700h-266v336l-196 -336h-252v700zM429 735q-181 0 -210 154h147q2 -24 10 -39.5t20 -21.5t19 -7.5t14 -1.5t14 1.5t19 7.5t20 21.5t10 39.5h147q-29 -154 -210 -154z" />
    <glyph glyph-name="afii10028" unicode="&#x41a;" horiz-adv-x="805" 
d="M63 0v700h280v-252l155 252h307l-238 -332l245 -368h-322l-147 266v-266h-280z" />
    <glyph glyph-name="afii10029" unicode="&#x41b;" horiz-adv-x="847" 
d="M140 700h644v-700h-280v497h-112v-262q0 -27 -1 -44t-6.5 -45.5t-16.5 -47.5t-32 -41.5t-50.5 -36t-76 -22.5t-104.5 -9q-43 0 -105 11v196q26 -7 44 -7q27 0 46 9t28.5 21t14.5 35.5t6 40.5t1 47v358z" />
    <glyph glyph-name="afii10030" unicode="&#x41c;" horiz-adv-x="1058" 
d="M14 0l98 700h308l109 -399l109 399h308l98 -700h-272l-32 364l-106 -364h-210l-106 364l-32 -364h-272z" />
    <glyph glyph-name="afii10031" unicode="&#x41d;" horiz-adv-x="826" 
d="M63 0v700h280v-241h140v241h280v-700h-280v256h-140v-256h-280z" />
    <glyph glyph-name="afii10032" unicode="&#x41e;" horiz-adv-x="874" 
d="M437 -21q-99 0 -178 31t-127.5 84t-74 118.5t-25.5 137.5t25.5 137.5t74 118.5t127.5 84t178 31t178 -31t127.5 -84t74 -118.5t25.5 -137.5t-25.5 -137.5t-74 -118.5t-127.5 -84t-178 -31zM437 203q57 0 97.5 38.5t40.5 108.5t-40.5 108.5t-97.5 38.5t-97.5 -38.5
t-40.5 -108.5t40.5 -108.5t97.5 -38.5z" />
    <glyph glyph-name="afii10033" unicode="&#x41f;" horiz-adv-x="846" 
d="M63 700h720v-700h-280v497h-160v-497h-280v700z" />
    <glyph glyph-name="afii10034" unicode="&#x420;" horiz-adv-x="735" 
d="M63 0v700h365q79 0 137 -23t87 -61t42 -76.5t13 -80.5t-13 -81t-42.5 -77t-87 -61t-136.5 -23h-85v-217h-280zM343 518v-119h31q67 0 67 60q0 59 -67 59h-31z" />
    <glyph glyph-name="afii10035" unicode="&#x421;" horiz-adv-x="645" 
d="M610 267v-245q-82 -43 -188 -43q-172 0 -281 102t-109 269q0 91 35 164.5t91.5 117t123.5 66.5t136 23q116 0 192 -53v-245q-30 37 -72.5 55.5t-82.5 18.5q-84 0 -120 -47t-36 -107q0 -72 46 -106t109 -34q85 0 156 64z" />
    <glyph glyph-name="afii10036" unicode="&#x422;" horiz-adv-x="588" 
d="M154 0v497h-147v203h574v-203h-147v-497h-280z" />
    <glyph glyph-name="afii10037" unicode="&#x423;" horiz-adv-x="791" 
d="M0 700h329l99 -214l80 214h290l-301 -700h-294l95 193z" />
    <glyph glyph-name="afii10038" unicode="&#x424;" horiz-adv-x="1016" 
d="M368 0v98q-42 0 -81.5 5t-88 23t-83.5 47.5t-59 84t-24 127.5t24 127.5t59 84t83.5 47.5t88 23t81.5 5v77h280v-77q42 0 81.5 -5t88 -23t83.5 -47.5t59 -84t24 -127.5t-24 -127.5t-59 -84t-83.5 -47.5t-88 -23t-81.5 -5v-98h-280zM620 476v-182h18q41 0 64 25.5t23 65.5
t-23 65.5t-64 25.5h-18zM396 294v182h-18q-41 0 -64 -25.5t-23 -65.5t23 -65.5t64 -25.5h18z" />
    <glyph glyph-name="afii10039" unicode="&#x425;" horiz-adv-x="797" 
d="M-7 0l249 368l-224 332h319l62 -133l62 133h306l-213 -322l250 -378h-315l-90 175l-98 -175h-308z" />
    <glyph glyph-name="afii10040" unicode="&#x426;" horiz-adv-x="875" 
d="M63 0v700h280v-497h161v497h280v-497h84v-343h-238v140h-567z" />
    <glyph glyph-name="afii10041" unicode="&#x427;" horiz-adv-x="777" 
d="M434 0v245q-71 -12 -131 -12q-53 0 -94 7.5t-68 18t-46.5 30t-29.5 37t-15.5 45t-6.5 47.5t-1 51v231h280v-159q0 -72 19 -93q13 -13 33 -13q22 0 60 6v259h280v-700h-280z" />
    <glyph glyph-name="afii10042" unicode="&#x428;" horiz-adv-x="1148" 
d="M63 0v700h266v-497h112v497h266v-497h112v497h266v-700h-1022z" />
    <glyph glyph-name="afii10043" unicode="&#x429;" horiz-adv-x="1176" 
d="M63 0v700h266v-497h112v497h266v-497h112v497h266v-497h84v-343h-238v140h-868z" />
    <glyph glyph-name="afii10044" unicode="&#x42a;" horiz-adv-x="805" 
d="M133 0v497h-126v203h406v-259h89q82 0 139 -20t85 -54t39.5 -69.5t11.5 -76.5q0 -42 -11.5 -77t-39.5 -69.5t-85.5 -54.5t-138.5 -20h-369zM413 168h34q64 0 64 53q0 52 -64 52h-34v-105z" />
    <glyph glyph-name="afii10045" unicode="&#x42b;" horiz-adv-x="1078" 
d="M63 0v700h280v-259h75q83 0 141.5 -20t87.5 -54t41 -69.5t12 -76.5q0 -42 -11.5 -77t-39.5 -69.5t-85 -54.5t-139 -20h-362zM343 168h34q64 0 64 53q0 52 -64 52h-34v-105zM735 0v700h280v-700h-280z" />
    <glyph glyph-name="afii10046" unicode="&#x42c;" horiz-adv-x="728" 
d="M63 0v700h280v-259h75q83 0 141.5 -20t87.5 -54t41 -69.5t12 -76.5q0 -42 -11.5 -77t-39.5 -69.5t-85 -54.5t-139 -20h-362zM343 168h34q64 0 64 53q0 52 -64 52h-34v-105z" />
    <glyph glyph-name="afii10047" unicode="&#x42d;" horiz-adv-x="676" 
d="M42 28v203q85 -56 183 -56q123 0 145 102h-216v153h205q-10 44 -52.5 69.5t-100.5 25.5q-84 0 -164 -56v200q103 52 226 52q163 0 269.5 -101.5t106.5 -259.5q0 -165 -102 -273t-275 -108q-130 0 -225 49z" />
    <glyph glyph-name="afii10048" unicode="&#x42e;" horiz-adv-x="1228" 
d="M343 449h66q23 121 121.5 196.5t260.5 75.5q178 0 291.5 -100.5t113.5 -270.5q0 -171 -113.5 -271t-292.5 -100q-157 0 -261.5 76.5t-119.5 204.5h-66v-260h-280v700h280v-251zM794 203q57 0 96 38t39 109t-39 109t-96 38q-32 0 -62 -12t-54.5 -47t-24.5 -88t24.5 -88
t54.5 -47t62 -12z" />
    <glyph glyph-name="afii10049" unicode="&#x42f;" horiz-adv-x="748" 
d="M14 0l159 253q-60 19 -101.5 70t-41.5 135q0 34 7.5 65.5t28 64.5t53 57t86.5 39.5t124 15.5h356v-700h-280v196l-84 -196h-307zM405 385v133h-28q-81 0 -81 -66q0 -67 81 -67h28z" />
    <glyph glyph-name="afii10065" unicode="&#x430;" horiz-adv-x="681" 
d="M625 483v-483h-217v50q-60 -71 -157 -71q-89 0 -155 70.5t-66 192.5q0 113 61.5 187.5t159.5 74.5q99 0 157 -73v52h217zM331 147q37 0 60.5 26t23.5 69q0 42 -23.5 68t-60.5 26t-60.5 -26t-23.5 -68q0 -43 23.5 -69t60.5 -26z" />
    <glyph glyph-name="afii10066" unicode="&#x431;" horiz-adv-x="646" 
d="M217 400h3q53 69 168 69q58 0 103 -20.5t71.5 -54.5t40 -73.5t13.5 -80.5q0 -107 -70.5 -184t-208.5 -77q-59 0 -107 14t-78.5 36t-53.5 53.5t-34.5 60.5t-18.5 64.5t-8.5 57.5t-1.5 46q0 63 10.5 115.5t27 89t42 65.5t49.5 46t56 31t54 20t52 12q11 2 27 5t24 5
t19.5 4.5t16.5 5t11 6t9 8.5t4 11h168q-1 -38 -13.5 -68t-28 -47t-41 -30.5t-43.5 -19t-45 -11.5q-42 -9 -66.5 -16t-54.5 -19.5t-47 -28t-31 -39.5t-18 -56zM325 140q35 0 54.5 23t19.5 64q0 40 -19.5 64t-54.5 24q-34 0 -53.5 -24t-19.5 -64q0 -41 19.5 -64t53.5 -23z" />
    <glyph glyph-name="afii10067" unicode="&#x432;" horiz-adv-x="581" 
d="M56 483h323q16 0 32.5 -2.5t47.5 -12t50.5 -36t19.5 -67.5q0 -86 -94 -113v-2q118 -20 118 -120q0 -52 -38.5 -91t-128.5 -39h-330v483zM266 287h16q51 0 51 43q0 41 -51 41h-16v-84zM266 112h22q48 0 48 42t-48 42h-22v-84z" />
    <glyph glyph-name="afii10068" unicode="&#x433;" horiz-adv-x="420" 
d="M56 0v483h357v-168h-133v-315h-224z" />
    <glyph glyph-name="afii10069" unicode="&#x434;" 
d="M126 483h462v-329h70v-294h-168v140h-308v-140h-168v294q38 -2 63 15.5t34.5 49.5t12 53t2.5 48v163zM378 154v175h-70v-61q0 -73 -54 -114h124z" />
    <glyph glyph-name="afii10070" unicode="&#x435;" horiz-adv-x="620" 
d="M590 196h-353q-1 -36 19 -63.5t58 -27.5q54 0 66 42h200q-26 -76 -96.5 -122t-180.5 -46q-136 0 -204.5 75.5t-68.5 187.5q0 117 76 189.5t204 72.5q71 0 125 -22.5t83 -55.5t46.5 -77.5t22 -80.5t3.5 -72zM240 294h147q0 34 -19 59t-54 25q-33 0 -52.5 -25.5
t-21.5 -58.5z" />
    <glyph glyph-name="afii10072" unicode="&#x436;" horiz-adv-x="918" 
d="M354 0v207l-118 -207h-246l182 252l-162 231h240l104 -199v199h210v-199l104 199h240l-162 -231l182 -252h-246l-118 207v-207h-210z" />
    <glyph glyph-name="afii10073" unicode="&#x437;" horiz-adv-x="532" 
d="M93 338l-52 125q102 41 212 41q107 0 164.5 -39t57.5 -100q0 -45 -26 -72.5t-60 -40.5v-2q56 -11 85.5 -44.5t29.5 -74.5q0 -58 -59 -105t-191 -47q-118 0 -233 54l67 134q77 -48 143 -48q30 0 46 12t16 28q0 30 -63 30h-83v112h93q53 0 53 30q0 40 -72 40
q-62 0 -128 -33z" />
    <glyph glyph-name="afii10074" unicode="&#x438;" horiz-adv-x="658" 
d="M56 483h210v-231l131 231h205v-483h-210v238l-131 -238h-205v483z" />
    <glyph glyph-name="afii10075" unicode="&#x439;" horiz-adv-x="658" 
d="M56 483h210v-231l131 231h205v-483h-210v238l-131 -238h-205v483zM343 546q-87 0 -137 44t-61 110h135q2 -24 10 -39.5t20 -21.5t19 -7.5t14 -1.5t14 1.5t19 7.5t20 21.5t10 39.5h135q-11 -66 -61 -110t-137 -44z" />
    <glyph glyph-name="afii10076" unicode="&#x43a;" horiz-adv-x="648" 
d="M56 0v483h224v-197l111 197h249l-171 -227l189 -256h-256l-122 214v-214h-224z" />
    <glyph glyph-name="afii10077" unicode="&#x43b;" 
d="M616 483v-483h-224v315h-84v-154q0 -26 -2.5 -45t-13.5 -44.5t-31 -42t-58.5 -28.5t-91.5 -12q-47 0 -97 11v168q13 -4 30 -4q68 0 68 85v234h504z" />
    <glyph glyph-name="afii10078" unicode="&#x43c;" horiz-adv-x="834" 
d="M14 0l77 483h252l74 -259l74 259h252l77 -483h-209l-40 238l-70 -238h-168l-70 238l-40 -238h-209z" />
    <glyph glyph-name="afii10079" unicode="&#x43d;" horiz-adv-x="651" 
d="M56 0v483h224v-154h91v154h224v-483h-224v175h-91v-175h-224z" />
    <glyph glyph-name="afii10080" unicode="&#x43e;" horiz-adv-x="644" 
d="M322 -21q-144 0 -218 75.5t-74 187.5t73.5 187t218.5 75t218.5 -75t73.5 -187t-74 -187.5t-218 -75.5zM322 161q39 0 57 25.5t18 55.5q0 29 -18 54.5t-57 25.5t-57 -25.5t-18 -54.5q0 -30 18 -55.5t57 -25.5z" />
    <glyph glyph-name="afii10081" unicode="&#x43f;" horiz-adv-x="658" 
d="M56 483h546v-483h-224v329h-98v-329h-224v483z" />
    <glyph glyph-name="afii10082" unicode="&#x440;" horiz-adv-x="681" 
d="M56 483h217v-52q54 73 157 73q55 0 103.5 -27.5t83 -89t34.5 -145.5q0 -110 -60 -186.5t-161 -76.5q-92 0 -150 63v-238h-224v679zM350 147q37 0 60.5 26t23.5 69q0 42 -23.5 68t-60.5 26t-60.5 -26t-23.5 -68q0 -43 23.5 -69t60.5 -26z" />
    <glyph glyph-name="afii10083" unicode="&#x441;" horiz-adv-x="472" 
d="M444 199v-185q-70 -35 -151 -35q-113 0 -188 72.5t-75 190.5q0 111 72 186.5t191 75.5q71 0 151 -35v-190q-52 43 -105 43q-38 0 -65 -22t-27 -63q0 -37 29.5 -56.5t70.5 -19.5q46 0 97 38z" />
    <glyph glyph-name="afii10084" unicode="&#x442;" horiz-adv-x="454" 
d="M115 0v315h-108v168h440v-168h-108v-315h-224z" />
    <glyph glyph-name="afii10085" unicode="&#x443;" horiz-adv-x="624" 
d="M-10 483h252l103 -210l73 210h216l-294 -679h-224l125 252z" />
    <glyph glyph-name="afii10086" unicode="&#x444;" horiz-adv-x="830" 
d="M310 -196v189q-36 0 -70.5 5.5t-73.5 22t-68 43t-48.5 72.5t-19.5 106t19 105.5t48 72t68.5 43t74 22t70.5 5.5v210h210v-210q36 0 70.5 -5.5t74 -22t68.5 -43t48 -72t19 -105.5t-19.5 -106t-48.5 -72.5t-68 -43t-73.5 -22t-70.5 -5.5v-189h-210zM499 322v-161
q37 2 64 21t27 56q0 35 -24.5 59t-66.5 25zM331 161v161q-42 -1 -66.5 -25t-24.5 -59q0 -37 27 -56t64 -21z" />
    <glyph glyph-name="afii10087" unicode="&#x445;" horiz-adv-x="616" 
d="M-7 0l196 256l-175 227h238l56 -115l56 115h238l-175 -227l196 -256h-231l-84 137l-84 -137h-231z" />
    <glyph glyph-name="afii10088" unicode="&#x446;" 
d="M56 0v483h224v-329h83v329h224v-329h71v-294h-168v140h-434z" />
    <glyph glyph-name="afii10089" unicode="&#x447;" horiz-adv-x="630" 
d="M350 0v143q-39 -7 -102 -7q-65 0 -108.5 12.5t-63.5 35t-27 44t-7 49.5v206h224v-133q0 -36 12 -48t34 -12q18 0 38 7v186h224v-483h-224z" />
    <glyph glyph-name="afii10090" unicode="&#x448;" horiz-adv-x="910" 
d="M56 0v483h210v-329h84v329h210v-329h84v329h210v-483h-798z" />
    <glyph glyph-name="afii10091" unicode="&#x449;" horiz-adv-x="938" 
d="M56 0v483h210v-329h84v329h210v-329h84v329h210v-329h70v-294h-168v140h-700z" />
    <glyph glyph-name="afii10092" unicode="&#x44a;" horiz-adv-x="620" 
d="M315 322h100q92 0 136 -48t44 -116q0 -71 -51 -114.5t-129 -43.5h-324v315h-84v168h308v-161zM315 112h17q25 0 39 13.5t14 36.5q0 24 -14.5 36t-38.5 12h-17v-98z" />
    <glyph glyph-name="afii10093" unicode="&#x44b;" horiz-adv-x="886" 
d="M280 322h100q92 0 136 -48t44 -116q0 -71 -51 -114.5t-129 -43.5h-324v483h224v-161zM280 112h17q25 0 39 13.5t14 36.5q0 24 -14.5 36t-38.5 12h-17v-98zM606 0v483h224v-483h-224z" />
    <glyph glyph-name="afii10094" unicode="&#x44c;" horiz-adv-x="585" 
d="M280 322h100q92 0 136 -48t44 -116q0 -71 -51 -114.5t-129 -43.5h-324v483h224v-161zM280 112h17q25 0 39 13.5t14 36.5q0 24 -14.5 36t-38.5 12h-17v-98z" />
    <glyph glyph-name="afii10095" unicode="&#x44d;" horiz-adv-x="520" 
d="M42 7v147q62 -35 127 -35q45 0 78.5 16t39.5 51h-182v112h178q-11 35 -46 50.5t-75 15.5q-60 0 -120 -38v144q68 34 146 34q141 0 221.5 -75.5t80.5 -183.5q0 -120 -85.5 -193t-212.5 -73q-83 0 -150 28z" />
    <glyph glyph-name="afii10096" unicode="&#x44e;" horiz-adv-x="934" 
d="M266 322h52q9 32 25 60t46 57.5t80.5 47t116.5 17.5q143 0 217.5 -75.5t74.5 -186.5q0 -112 -72.5 -187.5t-219.5 -75.5q-113 0 -182 52t-87 137h-51v-168h-210v483h210v-161zM586 161q39 0 57 25.5t18 55.5t-18 55t-57 25t-57 -26t-18 -54q0 -29 18 -55t57 -26z" />
    <glyph glyph-name="afii10097" unicode="&#x44f;" horiz-adv-x="595" 
d="M28 0l109 156q-53 14 -79 58t-26 96q0 18 3 37t15 44.5t31.5 45t56.5 33t86 13.5h315v-483h-210v143h-7l-77 -143h-217zM329 259v98h-31q-56 0 -56 -50q0 -48 56 -48h31z" />
    <glyph glyph-name="afii10071" unicode="&#x451;" horiz-adv-x="620" 
d="M590 196h-353q-1 -36 19 -63.5t58 -27.5q54 0 66 42h200q-26 -76 -96.5 -122t-180.5 -46q-136 0 -204.5 75.5t-68.5 187.5q0 117 76 189.5t204 72.5q71 0 125 -22.5t83 -55.5t46.5 -77.5t22 -80.5t3.5 -72zM240 294h147q0 34 -19 59t-54 25q-33 0 -52.5 -25.5
t-21.5 -58.5zM177 539q-39 0 -65 28.5t-26 69.5t26 69.5t65 28.5t65 -28.5t26 -69.5t-26 -69.5t-65 -28.5zM443 539q-39 0 -65 28.5t-26 69.5t26 69.5t65 28.5t65 -28.5t26 -69.5t-26 -69.5t-65 -28.5z" />
    <glyph glyph-name="afii10099" unicode="&#x452;" horiz-adv-x="690" 
d="M91 0v560h-84v105h84v70h224v-70h189v-105h-189v-133q21 35 62.5 54.5t89.5 19.5q91 0 137.5 -68.5t46.5 -172.5q0 -197 -139 -415l-167 72q91 160 91 329q0 90 -62 90q-29 0 -44 -27.5t-15 -63.5v-245h-224z" />
    <glyph glyph-name="afii10100" unicode="&#x453;" horiz-adv-x="420" 
d="M56 0v483h357v-168h-133v-315h-224zM71 539l123 161h210l-214 -161h-119z" />
    <glyph glyph-name="afii10101" unicode="&#x454;" horiz-adv-x="506" 
d="M413 298v-112h-168q6 -29 33 -48t78 -19q60 0 120 35v-147q-61 -28 -143 -28q-124 0 -207.5 73.5t-83.5 192.5t86 189t209 70q76 0 139 -34v-144q-62 38 -113 38q-43 0 -74 -17t-41 -49h165z" />
    <glyph glyph-name="afii10102" unicode="&#x455;" horiz-adv-x="486" 
d="M21 30l56 128q70 -39 113 -39q14 0 24.5 2.5t15.5 6t7.5 8.5t3 7t0.5 4q0 15 -10.5 23.5t-41.5 14.5q-78 13 -115.5 46t-37.5 100q0 74 55.5 123.5t164.5 49.5q107 0 188 -45l-54 -112q-52 31 -97 31q-23 0 -36 -8t-15.5 -14.5t-2.5 -13.5q0 -27 40 -35q6 -1 12.5 -2
t15 -2t12.5 -2q132 -21 132 -147q0 -17 -2 -32.5t-15 -43.5t-36 -48t-70 -35.5t-111 -15.5q-115 0 -196 51z" />
    <glyph glyph-name="afii10103" unicode="&#x456;" horiz-adv-x="336" 
d="M56 483h224v-483h-224v483zM42 637q0 47 37 79.5t89 32.5t89 -32.5t37 -79.5t-37 -79.5t-89 -32.5t-89 32.5t-37 79.5z" />
    <glyph glyph-name="afii10104" unicode="&#x457;" horiz-adv-x="392" 
d="M84 483h224v-483h-224v483zM14 637q0 41 24 69.5t60 28.5t60 -28.5t24 -69.5t-24 -69.5t-60 -28.5t-60 28.5t-24 69.5zM210 637q0 41 24 69.5t60 28.5t60 -28.5t24 -69.5t-24 -69.5t-60 -28.5t-60 28.5t-24 69.5z" />
    <glyph glyph-name="afii10105" unicode="&#x458;" horiz-adv-x="336" 
d="M56 483h224v-679h-224v679zM42 637q0 47 37 79.5t89 32.5t89 -32.5t37 -79.5t-37 -79.5t-89 -32.5t-89 32.5t-37 79.5z" />
    <glyph glyph-name="afii10106" unicode="&#x459;" horiz-adv-x="921" 
d="M616 483v-161h100q92 0 136 -48t44 -116q0 -71 -51 -114.5t-129 -43.5h-324v315h-84v-154q0 -26 -2.5 -45t-13.5 -44.5t-31 -42t-58.5 -28.5t-91.5 -12q-47 0 -97 11v168q13 -4 30 -4q68 0 68 85v234h504zM616 112h17q25 0 39 13.5t14 36.5q0 24 -14.5 36t-38.5 12h-17
v-98z" />
    <glyph glyph-name="afii10107" unicode="&#x45a;" horiz-adv-x="900" 
d="M56 0v483h224v-161h91v161h224v-161h100q92 0 136 -48t44 -116q0 -71 -51 -114.5t-129 -43.5h-324v168h-91v-168h-224zM595 112h17q25 0 39 13.5t14 36.5q0 24 -14.5 36t-38.5 12h-17v-98z" />
    <glyph glyph-name="afii10108" unicode="&#x45b;" horiz-adv-x="686" 
d="M91 0v560h-84v105h84v70h224v-70h189v-105h-189v-133q54 77 149 77q173 0 173 -222v-282h-224v273q0 63 -41 63q-25 0 -41 -24t-16 -67v-245h-224z" />
    <glyph glyph-name="afii10109" unicode="&#x45c;" horiz-adv-x="648" 
d="M56 0v483h224v-197l111 197h249l-171 -227l189 -256h-256l-122 214v-214h-224zM185 539l123 161h210l-214 -161h-119z" />
    <glyph glyph-name="afii10110" unicode="&#x45e;" horiz-adv-x="624" 
d="M-10 483h252l103 -210l73 210h216l-294 -679h-224l125 252zM312 546q-87 0 -137 44t-61 110h135q2 -24 10 -39.5t20 -21.5t19 -7.5t14 -1.5t14 1.5t19 7.5t20 21.5t10 39.5h135q-11 -66 -61 -110t-137 -44z" />
    <glyph glyph-name="afii10193" unicode="&#x45f;" horiz-adv-x="658" 
d="M602 483v-483h-189v-140h-168v140h-189v483h224v-329h98v329h224z" />
    <glyph glyph-name="afii10050" unicode="&#x490;" horiz-adv-x="595" 
d="M63 0v700h294v140h224v-336h-238v-504h-280z" />
    <glyph glyph-name="afii10098" unicode="&#x491;" horiz-adv-x="434" 
d="M56 0v483h238v126h133v-294h-147v-315h-224z" />
    <glyph glyph-name="endash" unicode="&#x2013;" horiz-adv-x="644" 
d="M49 210v105h546v-105h-546z" />
    <glyph glyph-name="emdash" unicode="&#x2014;" horiz-adv-x="777" 
d="M28 329h721v-119h-721v119z" />
    <glyph glyph-name="quoteleft" unicode="&#x2018;" horiz-adv-x="392" 
d="M364 735l-98 -315h-238l182 315h154z" />
    <glyph glyph-name="quoteright" unicode="&#x2019;" horiz-adv-x="392" 
d="M28 420l98 315h238l-182 -315h-154z" />
    <glyph glyph-name="quotesinglbase" unicode="&#x201a;" horiz-adv-x="392" 
d="M28 -140l98 315h238l-182 -315h-154z" />
    <glyph glyph-name="quotedblleft" unicode="&#x201c;" horiz-adv-x="658" 
d="M350 735l-98 -315h-224l168 315h154zM630 735l-98 -315h-224l168 315h154z" />
    <glyph glyph-name="quotedblright" unicode="&#x201d;" horiz-adv-x="658" 
d="M28 420l98 315h224l-168 -315h-154zM308 420l98 315h224l-168 -315h-154z" />
    <glyph glyph-name="quotedblbase" unicode="&#x201e;" horiz-adv-x="658" 
d="M28 -140l98 315h224l-168 -315h-154zM308 -140l98 315h224l-168 -315h-154z" />
    <glyph glyph-name="dagger" unicode="&#x2020;" horiz-adv-x="616" 
d="M203 -196v532h-175v189h175v210h210v-210h175v-189h-175v-532h-210z" />
    <glyph glyph-name="daggerdbl" unicode="&#x2021;" horiz-adv-x="616" 
d="M203 -196v210h-175v189h175v133h-175v189h175v210h210v-210h175v-189h-175v-133h175v-189h-175v-210h-210z" />
    <glyph glyph-name="bullet" unicode="&#x2022;" horiz-adv-x="460" 
d="M50 350q0 75 52.5 127.5t127.5 52.5t127.5 -52.5t52.5 -127.5t-52.5 -127.5t-127.5 -52.5t-127.5 52.5t-52.5 127.5z" />
    <glyph glyph-name="ellipsis" unicode="&#x2026;" horiz-adv-x="990" 
d="M63 84q0 42 30 72t72 30t72 -30t30 -72t-30 -72t-72 -30t-72 30t-30 72zM393 84q0 42 30 72t72 30t72 -30t30 -72t-30 -72t-72 -30t-72 30t-30 72zM723 84q0 42 30 72t72 30t72 -30t30 -72t-30 -72t-72 -30t-72 30t-30 72z" />
    <glyph glyph-name="perthousand" unicode="&#x2030;" horiz-adv-x="1310" 
d="M168 -20l455 740h91l-455 -740h-91zM21 528q0 79 56.5 135.5t135.5 56.5t135.5 -56.5t56.5 -135.5t-56.5 -135.5t-135.5 -56.5t-135.5 56.5t-56.5 135.5zM135 528q0 -33 22.5 -55.5t55.5 -22.5t55.5 22.5t22.5 55.5t-22.5 55.5t-55.5 22.5t-55.5 -22.5t-22.5 -55.5z
M477 172q0 79 56.5 135.5t135.5 56.5t135.5 -56.5t56.5 -135.5t-56.5 -135.5t-135.5 -56.5t-135.5 56.5t-56.5 135.5zM591 172q0 -33 22.5 -55.5t55.5 -22.5t55.5 22.5t22.5 55.5t-22.5 55.5t-55.5 22.5t-55.5 -22.5t-22.5 -55.5zM905 172q0 79 56.5 135.5t135.5 56.5
t135.5 -56.5t56.5 -135.5t-56.5 -135.5t-135.5 -56.5t-135.5 56.5t-56.5 135.5zM1019 172q0 -33 22.5 -55.5t55.5 -22.5t55.5 22.5t22.5 55.5t-22.5 55.5t-55.5 22.5t-55.5 -22.5t-22.5 -55.5z" />
    <glyph glyph-name="guilsinglleft" unicode="&#x2039;" horiz-adv-x="322" 
d="M28 252l171 231l95 -59l-126 -172l126 -172l-95 -59z" />
    <glyph glyph-name="guilsinglright" unicode="&#x203a;" horiz-adv-x="322" 
d="M294 252l-171 -231l-95 59l126 172l-126 172l95 59z" />
    <glyph glyph-name="Euro" unicode="&#x20ac;" 
d="M609 672v-163q-43 45 -146 45q-124 0 -150 -103h252l-36 -87h-224q0 -3 -0.5 -11.5t-0.5 -11.5q0 -12 2 -28h203l-36 -86h-152q23 -80 142 -80q44 0 85.5 12t60.5 30v-164q-58 -38 -173 -38q-151 0 -230 60t-103 180h-89l35 86h46q-1 9 -1 27q0 15 1 24h-81l35 87h52
q26 125 103 194t232 69q119 0 173 -42z" />
    <glyph glyph-name="afii61352" unicode="&#x2116;" horiz-adv-x="1239" 
d="M63 0v700h262l200 -343v343h245v-700h-259l-203 350v-350h-245zM1015 196q-80 0 -138 51t-58 145t58 145t138 51t138 -51t58 -145t-58 -145t-138 -51zM1015 322q22 0 35.5 14t17 28t3.5 28t-3.5 28t-17 28t-35.5 14t-35.5 -14t-17 -28t-3.5 -28t3.5 -28t17 -28t35.5 -14z
M854 0v140h322v-140h-322z" />
    <glyph glyph-name="trademark" unicode="&#x2122;" horiz-adv-x="792" 
d="M120 420v190h-70v90h260v-90h-70v-190h-120zM531 549l41 151h126l44 -280h-102l-23 152l-44 -152h-84l-44 152l-23 -152h-102l44 280h126z" />
    <glyph glyph-name="hyphenminus" horiz-adv-x="385" 
d="M28 364h329v-154h-329v154z" />
  </font>
</defs>
</svg>
